<svg version="1" xmlns="http://www.w3.org/2000/svg" width="1365.333" height="1365.333" viewBox="0 0 1024.000000 1024.000000"><path d="M95.5 2C50 11.4 16.1 43.3 3.2 88.9L.5 98.5.2 508C0 864.3.2 918.6 1.4 926c7.5 42.9 38.7 78.9 80.1 92.3 18.8 6.1-13.8 5.7 430.5 5.7s411.7.4 430.5-5.7c41.4-13.4 72.6-49.3 80-92.2 2.2-12.6 2.2-815.6 0-828.2-8.5-49-46.7-87.2-96.4-96.4C918.7.2 873.8 0 511.1.1 119.9.2 104.2.2 95.5 2zm367.2 31.1c48.4 5.4 85.9 42.1 91.3 89.4 2.1 18.5.7 95.1-2.5 138.5-5.7 76.7-18.7 132.8-38.5 166.2-2.3 3.8-4 7.1-3.8 7.3.1.1 3.9 3.1 8.3 6.6 17.5 13.7 38.2 37.4 52 59.4 8.1 12.8 22.6 42.8 28 57.8 18.1 50.6 26.7 102.9 28.2 171.2.7 32.2-.2 44.2-4.3 58.2-10.8 37.2-42.1 64.8-81.9 71.9-12.2 2.1-399.2 2.1-411.7-.1-46.6-8.1-80.7-42.4-85.8-86.2-.7-5.8-.4-13.9 1-31.3 10.6-128.2 14.8-232.7 13.7-339.5-1.1-97.1-4.5-161.5-13.8-254.4-1.7-17.2-1.8-22-.9-29.5 4-32.7 25.3-61.1 57.1-76 9.2-4.4 23.1-8.4 32.9-9.5 11.4-1.3 319-1.3 330.7 0z"/><path d="M138.1 126.3c-2.7 1.3-2.8-1.4.8 35.2 5.8 59.1 10.3 136.4 11.7 203.7l.7 31.8H417.6l3.3-2.4c11.4-8.4 21.6-34.3 28.5-72.6 6.8-37.4 9.9-79 11.2-150 .7-38.5.3-43.9-3.6-46-2.8-1.5-315.7-1.2-318.9.3zM150.6 502.2c-.3 6.8-.8 22-1.1 33.8-1.5 58.1-6.1 136.1-12.7 214.1-.6 7.5-.8 14.4-.5 15.2.3.9 2.3 2.1 4.4 2.6 2.6.8 63.4 1.1 193.6 1.1 212.3 0 194.6.7 196.8-7.3 1.4-5.3.5-46.3-1.7-71.7-9.2-108.6-48.8-180.3-108.9-197.2l-8-2.3-130.6-.3-130.7-.2-.6 12.2z"/></svg>