<svg version="1" xmlns="http://www.w3.org/2000/svg" width="1365.333" height="1365.333" viewBox="0 0 1024.000000 1024.000000"><path d="M90 2C67.3 6.8 49 16.8 33 32.9 18.9 47.1 8.6 65 3.2 84.7L.5 94.5v835l2.7 10c3.8 13.8 13 31.9 21.6 42.5 15.6 19.4 35.3 32.1 60.3 39.1l8.4 2.4 415.3.3 415.3.2 10.1-2c41.7-8.5 74.9-40.2 86.6-82.7l2.7-9.8v-835l-2.7-10c-3.8-13.7-13-31.9-21.5-42.5-16.6-20.6-39.6-34.8-65.1-40-10-2-10.7-2-422.9-1.9C116.6.1 98.1.2 90 2zm743.3 56.1c44 6.6 79.6 36.6 93.2 78.4 5.3 16.5 5.8 22.3 5.2 65.5-.8 50.3-3.1 80.6-9.3 121-11.1 72.3-33.9 131.1-66.7 172-4.1 5.2-7.5 9.9-7.4 10.5.1.5 4.2 4.3 9.1 8.4 56.6 47.1 96.6 123 112 212.6 6.5 37.9 8.9 67 9 109 .1 33.7-.6 40.5-6.1 56.5-7.3 21.4-21.7 41.1-40.2 55.2-8.5 6.4-26.3 15.1-37.2 18.2-4.7 1.4-13.1 3-18.5 3.6-7.2.8-107.8 1-364.9.8l-355-.4-8.5-2.1c-30.8-7.9-52.9-22.3-70.2-45.7-15.1-20.3-22.1-45.8-19.8-72.2 7.6-87.9 12.7-177.1 15.1-263.9 2-73.8.2-207.6-3.6-266.5-3.5-54.7-6-86.7-10.1-127.8-2.2-22.1-2.3-26.6-1.4-35.4 1.9-17.5 7.1-32 16.5-46.4 17.4-26.8 48.8-46.7 81-51.3 9.2-1.3 669-1.3 677.8 0z"/><path d="M169.6 166.7c-1.6.4-1.7 1.2-1.2 5.1 1.1 8.6 6.5 70.5 8.1 91.7 3.8 53.6 6.2 105.4 7.1 155.7l.7 35.8h271.2c300.8 0 274.8.6 288.5-6.6 36.1-18.8 61.2-74.8 71.9-160.4 3.2-25 5-53.2 5.8-86.7.6-27.3.5-30.4-1.1-32.7L819 166l-323.8.1c-178 .1-324.5.3-325.6.6zM184 568.5c0 9.2-2.2 71.4-3.5 101-2.5 55.1-6.2 112.2-10.6 163.9-1.1 13.2-1.8 24.5-1.5 25.3.7 1.8 696.5 2 698.4.1 1.5-1.5 1.6-43.6.2-62.9-3.9-50.1-13.6-92.7-29.3-127.5-25-55.8-67.8-93.6-115.2-101.8-8-1.4-38.4-1.6-273.7-1.6H184v3.5z"/></svg>